<?xml version="1.0"?>
<svg xmlns:rdf="http://www.w3.org/1999/02/22-rdf-syntax-ns#" xmlns="http://www.w3.org/2000/svg" xmlns:cc="http://creativecommons.org/ns#" xmlns:xlink="http://www.w3.org/1999/xlink" xmlns:dc="http://purl.org/dc/elements/1.1/" xmlns:svg="http://www.w3.org/2000/svg" id="svg2" viewBox="0 0 230 200" version="1.1">
  <defs id="defs4">
    <filter id="filter3717" color-interpolation-filters="sRGB">
      <feGaussianBlur id="feGaussianBlur3719" stdDeviation="2.0963419"/>
    </filter>
    <radialGradient id="radialGradient3807" gradientUnits="userSpaceOnUse" cy="485.46" cx="12.478" gradientTransform="matrix(.22279 2.5081 -1.4503 .12883 780.28 855.74)" r="30.135">
      <stop id="stop3803" stop-color="#472d17" offset="0"/>
      <stop id="stop3805" stop-color="#472d17" stop-opacity="0" offset="1"/>
    </radialGradient>
    <radialGradient id="radialGradient3815" gradientUnits="userSpaceOnUse" cy="497.27" cx="137.26" gradientTransform="matrix(-.099517 2.0472 -1.7557 -.085346 1025.4 719.23)" r="26.236">
      <stop id="stop3811" stop-color="#472d17" offset="0"/>
      <stop id="stop3813" stop-color="#472d17" stop-opacity="0" offset="1"/>
    </radialGradient>
  </defs>
  <g id="layer1" transform="translate(0 -852.36)">
    <path id="path3721" d="m-121.01 646.29c-63.347-172.11 5.4844-191.4 24.306-280.96 9.5915-45.641 19.449-57.834 38.695-69.926 21.583-13.561 54.294-21.943 79.71-29.726 14.689 12.097 54.228-35.811 129.25 9.6206 24.444 12.756 40.454 4.6069 66.338 27.2 22.503 19.642 31.315 46.111 35.256 71.611 9.918 64.175 84.693 88.242 24.103 269.29-30.952 0.73409 1.8875-10.648-39.049-4.0295-4.8979-180.37-15.914-150.99-53.77-206.31 2.2665 11.054 28.188 2.8057 24.883 9.5882-20.475 42.018-15.301 64.752-29.22 75.005-6.6678 35.921 4.0705 75.799 2.523 79.384-45.413 22.675-162.56 16.766-211.21-3.6308-16.186-2.5445 15.223-33.795 2.064-73.154-7.0264-14.447-14.103-54.038-21.956-84.946-2.7595-10.862 33.102-9.5334 34.121-14.064-83.181 25.308-65.876 116.38-71.01 221.79-0.93484-27.106-24.348 6.2368-35.024 3.2534z" transform="matrix(.47827 0 0 .47827 72.999 738.69)" filter="url(#filter3717)" stroke="#000" stroke-width=".7"/>
    <path id="path3028" stroke="#000" stroke-width=".47422px" fill="#036" d="m89.383 864.17s9.7911-6.1662 18.874-7.2342c8.1846-0.96241 23.492 6.2752 23.492 6.2752l0.41189 7.1404s-14.125-9.0219-21.384-7.7807c-8.2085 1.4036-25.94 14.137-25.94 14.137l4.5466-12.538z"/>
    <path id="path2866" d="m-119.01 650.29c-63.347-172.11 5.4844-191.4 24.306-280.96 9.5915-45.641 19.449-57.834 38.695-69.926 21.583-13.561 54.294-21.943 79.71-29.726 14.689 12.097 54.228-35.811 129.25 9.6206 24.444 12.756 40.454 4.6069 66.338 27.2 22.503 19.642 31.315 46.111 35.256 71.611 9.918 64.175 84.693 88.242 24.103 269.29-30.952 0.73409 1.8875-10.648-39.049-4.0295-4.8979-180.37-15.914-150.99-53.77-206.31 2.2665 11.054 28.188 2.8057 24.883 9.5882-20.475 42.018-15.301 64.752-29.22 75.005-6.6678 35.921 4.0705 75.799 2.523 79.384-45.413 22.675-162.56 16.766-211.21-3.6308-16.186-2.5445 15.223-33.795 2.064-73.154-7.0264-14.447-14.103-54.038-21.956-84.946-2.7595-10.862 33.102-9.5334 34.121-14.064-83.181 25.308-65.876 116.38-71.01 221.79-0.93484-27.106-24.348 6.2368-35.024 3.2534z" transform="matrix(.47827 0 0 .47827 72.999 738.69)" filter="url(#filter3717)" stroke="#edb628" stroke-width=".7" fill="#fdca01"/>
    <path id="path2872" stroke="#000" stroke-width=".38874px" d="m91.205 867.61c0.6525 8.651 10.458 14.687 17.548 21.498 7.9908-7.0136 16.224-13.785 23.274-21.74 0 0-14.784-6.6262-24.212-5.84-7.3518 0.6131-16.61 6.0812-16.61 6.0812z"/>
    <path id="path2874" stroke="#000" stroke-width=".47827px" d="m112.29 1026.9-3.2607-137.03 0.95868 1.4278 2.302 135.6z"/>
    <path id="path2924" stroke="#000" stroke-width=".38874px" fill="none" d="m107.84 893.09z"/>
    <path id="path2938" stroke="#000" stroke-width=".25204px" fill="none" d="m73.595 1028.4 33.723 0.6674 43.903-0.8899-77.626 0.2225z"/>
    <path id="path2940" stroke="#000" stroke-width=".47827px" d="m60.377 1024.8s38.186 8.6052 51.883 8.6951c15.112 0.099 49.452-5.7113 49.452-5.7113-25.275-4.4758-69.617-2.9838-101.33-2.9838z"/>
    <path id="path3024" stroke="#000" stroke-width=".38874px" fill="#036" d="m106.83 882.6 2.7513 7.1123c-10.16-6.71-19.004-10.48-23.392-20.5l3.4819-5.3296c1.6427 11.394 6.9868 12.225 17.159 18.718z"/>
    <path id="path3026" stroke="#000" stroke-width=".38874px" fill="#036" d="m109.58 884.62c12.058-4.3898 17.743-8.75 22.617-21.396l2.7065 4.3546c-5.3702 10.439-13.558 17.004-25.934 22.613l0.61026-5.571z"/>
    <path id="path3633" d="m82.161 893.63c-2.9839 0.74596-22.1 3.9986-26.855 12.681 0 0-29.126 39.419-34.314 62.661-5.2647 23.585 4.4758 72.359 4.4758 72.359v0" stroke="#4a442d" stroke-linecap="round" stroke-width="3.2522" fill="none"/>
    <path id="path3635" d="m95.378 878.71c3.0518 0-18.432 20.998-26.855 35.806-8.5393 15.014 15.332 31.153 20.141 47.742 5.8963 20.338 10.444 62.661 10.444 62.661" stroke="#5e5134" stroke-linecap="round" stroke-width=".38261" fill="none"/>
    <path id="path3637" d="m138.36 891.18c2.9839 0.74596 22.1 3.9986 26.855 12.681 0 0 29.126 39.419 34.314 62.661 5.2647 23.585-4.4758 72.359-4.4758 72.359v0" stroke="#474133" stroke-linecap="round" stroke-width="3.2522" fill="none"/>
    <path id="path3639" d="m126.71 880.2s24.291 24.728 26.109 39.536c2.1044 17.143-17.017 28.157-19.395 44.012l-8.9516 59.677" stroke="#5e5134" stroke-linecap="round" stroke-width=".47827" fill="none"/>
    <path id="path3697" stroke="#000" stroke-width=".50173px" fill="url(#radialGradient3807)" d="m99.842 1024.9s-3.9536-32.832-9.7739-48.79c-4.814-13.19-18.549-37.72-18.549-37.72l4.3055-0.73945c-1.0743 0 12.037 19.9 16.147 32.536 5.4168 16.652 7.8708 54.719 7.8708 54.719z"/>
    <path id="path3757" stroke="#000" stroke-width=".47964px" fill="url(#radialGradient3815)" d="m123.73 1029.4s3.436-34.525 8.4944-51.306c4.1838-13.879 16.121-39.67 16.121-39.67l-3.7418-0.77755c0.93366 0-10.461 20.926-14.033 34.213-4.7077 17.51-6.8405 57.54-6.8405 57.54z"/>
    <rect id="rect3783" stroke-linejoin="round" transform="scale(1,-1)" fill-rule="evenodd" ry=".12599" height="32.505" width=".86543" stroke="#825e0a" stroke-linecap="round" y="-1009.9" x="75.024" stroke-width=".2999" fill="#f0a513"/>
    <rect id="rect3785" stroke-linejoin="round" transform="scale(1,-1)" fill-rule="evenodd" ry=".12599" height="32.505" width=".86543" stroke="#825e0a" stroke-linecap="round" y="-1009.9" x="76.609" stroke-width=".2999" fill="#333"/>
    <rect id="rect3787" stroke-linejoin="round" ry=".12599" fill-rule="evenodd" transform="scale(1,-1)" height="32.505" width=".86543" stroke="#825e0a" stroke-linecap="round" y="-1009.9" x="146.76" stroke-width=".2999" fill="#f0a513"/>
    <rect id="rect3789" stroke-linejoin="round" ry=".12599" fill-rule="evenodd" transform="scale(1,-1)" height="32.505" width=".86543" stroke="#825e0a" stroke-linecap="round" y="-1009.9" x="148.35" stroke-width=".2999" fill="#333"/>
    <path id="path3791" stroke="#000" stroke-width=".47827px" fill="none" d="m49.128 951.07c8.3574-12.675 9.3294-13.602 21.633-16.411"/>
    <path id="path3793" stroke="#000" stroke-width=".47827px" fill="none" d="m172.96 959.28c-1.3676-14.049-12.84-17.993-23.871-22.379"/>
    <path id="path3795" stroke="#000" stroke-width=".4039px" fill="none" d="m57.371 901.87c-3.086-10.31-8.682-15.6-15.74-17.97"/>
    <path id="path3797" stroke="#000" stroke-width=".29398px" fill="none" d="m160.74 897.68c-2.75-6.8238 4.6614-11.107 9.3236-16.078"/>
    <path id="path3817" stroke-linejoin="round" d="m-357.18 518.93a24.956 6.2389 0 1 1 -49.911 0 24.956 6.2389 0 1 1 49.911 0z" fill-rule="evenodd" transform="matrix(.34675 -.10623 0 .34675 156.27 825.27)" stroke="#edb628" stroke-linecap="round"/>
    <path id="path3819" stroke-linejoin="round" d="m-357.18 518.93a24.956 6.2389 0 1 1 -49.911 0 24.956 6.2389 0 1 1 49.911 0z" fill-rule="evenodd" transform="matrix(-.34675 -.10623 0 .34675 62.691 826.33)" stroke="#edb628" stroke-linecap="round"/>
  </g>
  <metadata>
    <rdf:RDF>
      <cc:Work>
        <dc:format>image/svg+xml</dc:format>
        <dc:type rdf:resource="http://purl.org/dc/dcmitype/StillImage"/>
        <cc:license rdf:resource="http://creativecommons.org/licenses/publicdomain/"/>
        <dc:publisher>
          <cc:Agent rdf:about="http://openclipart.org/">
            <dc:title>Openclipart</dc:title>
          </cc:Agent>
        </dc:publisher>
        <dc:title>motorsports-jacket</dc:title>
        <dc:date>2010-07-22T12:28:44</dc:date>
        <dc:description>automotive clipart by NetAlloy</dc:description>
        <dc:source>http://openclipart.org/detail/74299/motorsports-jacket-by-netalloy</dc:source>
        <dc:creator>
          <cc:Agent>
            <dc:title>netalloy</dc:title>
          </cc:Agent>
        </dc:creator>
        <dc:subject>
          <rdf:Bag>
            <rdf:li>bike</rdf:li>
            <rdf:li>car</rdf:li>
            <rdf:li>clip art</rdf:li>
            <rdf:li>clipart</rdf:li>
            <rdf:li>drive</rdf:li>
            <rdf:li>driving gear</rdf:li>
            <rdf:li>fireproof jacket</rdf:li>
            <rdf:li>motor sports-jacket</rdf:li>
            <rdf:li>motorsports</rdf:li>
            <rdf:li>protection</rdf:li>
            <rdf:li>safety jacket</rdf:li>
            <rdf:li>sports2010</rdf:li>
            <rdf:li>yellow</rdf:li>
          </rdf:Bag>
        </dc:subject>
      </cc:Work>
      <cc:License rdf:about="http://creativecommons.org/licenses/publicdomain/">
        <cc:permits rdf:resource="http://creativecommons.org/ns#Reproduction"/>
        <cc:permits rdf:resource="http://creativecommons.org/ns#Distribution"/>
        <cc:permits rdf:resource="http://creativecommons.org/ns#DerivativeWorks"/>
      </cc:License>
    </rdf:RDF>
  </metadata>
</svg>
