<svg id="Layer_1" enable-background="new 0 0 512 512" height="512" viewBox="0 0 512 512" width="512" xmlns="http://www.w3.org/2000/svg"><g><circle cx="256" cy="316.632" r="23.194"/><path d="m256 263.438c24.125 0 44.55 16.143 51.041 38.194h107.979v-165.972c0-29.16-23.73-52.88-52.89-52.88h-212.26c-29.16 0-52.89 23.72-52.89 52.88v165.973h107.979c6.491-22.052 26.916-38.195 51.041-38.195z"/><path d="m458.775 322.831c-8.289 0-15.009 6.716-15.009 15s6.72 15 15.009 15c12.796 0 23.208 10.405 23.208 23.195s-10.411 23.194-23.208 23.194h-43.755v-67.588h-107.979c-6.491 22.051-26.917 38.194-51.041 38.194-24.125 0-44.55-16.143-51.041-38.194h-107.979v67.588h-43.754c-12.797 0-23.208-10.405-23.208-23.194s10.411-23.195 23.208-23.195c8.289 0 15.009-6.716 15.009-15s-6.72-15-15.009-15c-29.349 0-53.226 23.863-53.226 53.195s23.877 53.194 53.226 53.194h405.549c29.348 0 53.225-23.863 53.225-53.194s-23.877-53.195-53.225-53.195z"/></g></svg>